<?xml version="1.0" standalone="no"?>
<!DOCTYPE svg PUBLIC "-//W3C//DTD SVG 20010904//EN"
 "http://www.w3.org/TR/2001/REC-SVG-20010904/DTD/svg10.dtd">
<svg version="1.0" xmlns="http://www.w3.org/2000/svg"
 width="1695.000000pt" height="519.000000pt" viewBox="0 0 1695.000000 519.000000"
 preserveAspectRatio="xMidYMid meet">
<metadata>
Created by potrace 1.16, written by Peter Selinger 2001-2019
</metadata>
<g transform="translate(0.000000,519.000000) scale(0.100000,-0.100000)"
fill="#000000" stroke="none">
<path d="M2275 4480 c-300 -36 -573 -152 -763 -323 -140 -127 -236 -274 -282
-432 -48 -168 -54 -279 -19 -385 62 -188 198 -308 513 -450 338 -152 463 -229
517 -316 27 -44 32 -158 10 -214 -17 -43 -67 -127 -95 -159 -39 -43 -213 -141
-252 -141 -8 0 -23 -4 -33 -9 -35 -19 -263 -43 -355 -38 -219 13 -346 52 -407
126 -42 51 -41 136 2 252 54 144 60 180 39 227 -10 22 -30 48 -44 57 -34 23
-144 31 -199 16 -116 -33 -225 -184 -265 -366 -6 -27 -16 -71 -22 -97 -12 -58
-13 -116 -1 -154 5 -16 15 -49 22 -74 27 -94 119 -194 228 -250 131 -65 248
-92 519 -116 136 -13 464 33 623 86 197 66 406 192 510 307 135 151 225 350
247 548 7 67 5 91 -21 180 -45 157 -199 290 -492 426 -368 171 -441 213 -505
297 -49 63 -60 95 -60 166 1 157 109 311 274 390 41 20 82 36 91 36 9 0 25 5
35 10 24 13 193 31 290 31 165 1 313 -47 367 -118 38 -49 35 -132 -7 -250 -29
-80 -43 -123 -56 -178 -8 -32 23 -91 63 -122 31 -24 46 -28 102 -28 77 0 119
15 179 63 78 62 142 181 184 342 15 58 19 99 16 185 -3 98 -6 116 -33 169 -39
78 -140 175 -224 216 -136 67 -252 91 -461 95 -91 2 -196 0 -235 -5z"/>
<path d="M15225 4470 c-55 -5 -120 -13 -145 -18 -25 -6 -63 -13 -85 -17 -73
-13 -269 -83 -381 -137 -170 -82 -277 -152 -472 -313 -98 -80 -346 -362 -414
-470 -14 -22 -50 -79 -81 -127 -54 -83 -190 -346 -216 -418 -8 -19 -19 -48
-26 -65 -28 -64 -92 -250 -116 -340 -6 -22 -15 -51 -19 -65 -55 -180 -78 -309
-87 -495 -14 -303 93 -542 288 -640 68 -35 97 -43 184 -55 264 -34 479 113
628 430 62 131 97 211 97 219 0 4 14 35 30 69 17 34 30 66 30 70 0 5 14 36 30
70 17 34 30 66 30 71 0 4 6 21 14 37 8 16 21 45 29 64 8 19 26 60 39 90 14 30
31 71 38 91 l13 37 91 12 c278 37 443 85 658 191 135 66 212 117 318 205 223
189 373 419 440 679 28 107 34 300 11 375 -52 172 -164 301 -327 376 -60 27
-70 31 -179 57 -76 19 -289 27 -420 17z m158 -394 c109 -28 186 -87 228 -173
21 -42 24 -63 24 -158 0 -95 -4 -121 -29 -195 -58 -170 -95 -233 -206 -353
-119 -128 -316 -227 -522 -261 -79 -13 -94 -12 -80 8 5 6 15 27 22 46 7 19 24
58 36 85 12 28 32 75 44 105 12 30 28 71 37 90 8 19 19 44 24 55 102 236 129
311 129 367 0 86 -49 122 -165 122 -108 -1 -179 -28 -243 -91 -56 -56 -74 -91
-182 -343 -34 -80 -69 -161 -77 -180 -9 -19 -27 -60 -39 -90 -52 -127 -72
-172 -81 -181 -7 -7 -35 -7 -84 0 -107 15 -160 1 -218 -58 -66 -66 -87 -144
-57 -215 16 -38 68 -64 149 -73 27 -3 51 -11 53 -18 5 -13 -210 -531 -277
-665 -48 -98 -114 -170 -156 -170 -20 0 -70 49 -88 86 -42 90 -56 259 -34 406
11 73 44 221 59 268 4 14 13 45 20 70 101 357 291 735 504 1000 47 58 213 221
287 281 113 91 299 185 444 225 129 35 363 40 478 10z"/>
<path d="M3740 3941 c-149 -48 -231 -121 -273 -245 -23 -68 -21 -123 6 -171
33 -58 74 -81 171 -95 76 -11 89 -10 152 10 146 45 229 124 277 264 9 27 17
65 17 83 0 129 -180 208 -350 154z"/>
<path d="M6285 3225 c-5 -2 -52 -13 -103 -25 -159 -37 -312 -120 -480 -262
-74 -63 -194 -189 -234 -247 -13 -18 -34 -25 -104 -37 -49 -7 -120 -19 -157
-25 -38 -6 -71 -9 -74 -6 -3 3 4 19 16 35 63 89 151 322 151 400 0 15 -11 51
-25 79 -36 71 -71 87 -180 81 -75 -4 -89 -8 -160 -49 -141 -80 -269 -247 -310
-405 -8 -32 -15 -99 -15 -149 l0 -91 -77 -89 c-64 -75 -230 -261 -293 -328
-16 -17 -17 -17 -13 15 5 38 55 308 84 453 11 55 31 152 44 216 13 64 33 150
44 191 12 41 21 99 21 130 0 50 -3 59 -31 82 -27 23 -39 26 -112 26 -167 0
-236 -49 -279 -198 -32 -107 -95 -384 -124 -543 l-27 -146 -134 -114 c-166
-141 -242 -189 -300 -189 -61 0 -78 28 -70 118 7 85 47 201 139 402 11 25 29
63 38 85 10 22 29 65 43 95 61 134 72 161 114 264 57 144 56 179 -7 211 -34
18 -156 20 -215 4 -67 -18 -140 -103 -215 -249 -167 -324 -287 -637 -321 -835
-23 -135 -23 -166 -3 -258 37 -160 126 -222 307 -214 119 5 241 44 337 107 14
9 52 34 84 56 33 21 78 54 100 72 l40 34 12 -73 c15 -86 50 -143 109 -176 32
-18 56 -23 116 -23 94 0 183 33 286 105 78 56 269 245 422 419 114 128 101
122 196 97 22 -6 104 -11 181 -11 l142 0 -20 -62 c-15 -47 -21 -93 -22 -179
-1 -114 -1 -115 37 -193 30 -59 49 -85 83 -109 70 -49 129 -67 219 -67 155 0
303 70 452 213 l52 50 6 -29 c12 -56 40 -109 80 -153 118 -129 309 -106 566
68 l74 51 6 -43 c17 -114 63 -157 167 -157 130 0 185 53 316 305 149 286 310
512 476 668 55 52 89 77 106 77 32 0 32 -26 -2 -122 -43 -124 -46 -139 -42
-222 5 -107 34 -156 116 -194 52 -25 67 -27 182 -27 84 0 133 5 148 14 13 7
26 10 29 7 3 -2 1 -38 -5 -80 -12 -87 4 -190 39 -261 89 -179 353 -219 578
-87 53 31 166 123 198 161 11 14 23 24 25 21 2 -3 12 -31 21 -62 78 -257 356
-263 680 -15 l37 29 0 -46 c0 -62 20 -108 62 -140 29 -21 45 -26 96 -26 137 0
190 52 332 325 191 366 441 704 530 715 32 5 42 0 37 -17 -3 -10 -12 -40 -20
-68 -15 -50 -48 -142 -87 -245 -38 -98 -110 -316 -121 -366 -34 -149 -17 -260
49 -314 32 -27 44 -30 102 -30 85 1 135 24 191 88 40 47 65 90 170 291 123
234 339 525 462 623 53 41 97 50 97 20 0 -25 -63 -206 -101 -287 -5 -11 -25
-63 -44 -115 -19 -52 -40 -104 -45 -115 -6 -11 -30 -82 -55 -157 -68 -207 -62
-288 25 -333 43 -22 167 -20 222 4 93 40 135 113 194 341 42 160 179 539 295
815 35 83 69 204 69 244 0 58 -28 105 -80 133 -50 28 -180 20 -269 -16 -208
-84 -438 -280 -641 -550 -24 -32 -46 -54 -47 -49 -2 5 10 36 26 69 30 61 90
203 123 289 42 113 31 213 -28 252 -35 23 -177 25 -244 4 -66 -22 -164 -76
-254 -140 -105 -75 -302 -281 -401 -420 -44 -61 -81 -108 -83 -103 -3 11 68
170 166 372 104 212 116 247 97 277 -19 28 -67 37 -159 30 -110 -8 -190 -54
-258 -147 -94 -128 -274 -553 -331 -782 -5 -19 -192 -173 -264 -216 -72 -43
-124 -51 -152 -23 -12 12 -21 33 -21 47 0 39 63 217 142 399 66 153 148 347
189 447 26 63 24 101 -5 135 -24 27 -27 28 -145 31 l-121 4 0 24 c0 30 -17 64
-39 81 -26 20 -139 15 -249 -12 -271 -66 -541 -263 -751 -548 -78 -106 -120
-136 -192 -137 -88 0 -82 59 31 320 65 151 84 224 69 268 -14 44 -43 78 -84
99 -37 20 -183 12 -241 -12 -261 -112 -438 -266 -699 -610 -38 -49 -65 -81
-60 -70 4 11 18 47 31 80 12 33 64 143 114 245 100 202 140 293 140 322 0 10
-10 28 -21 39 -20 20 -29 21 -118 16 -98 -5 -160 -24 -221 -67 -80 -57 -255
-407 -346 -690 -25 -80 -50 -155 -55 -167 -9 -25 -148 -145 -235 -204 -98 -67
-172 -76 -196 -23 -10 20 -7 38 11 97 26 79 91 248 144 372 86 200 139 322
152 350 27 61 44 136 36 158 -20 52 -45 62 -169 67 l-117 5 -6 39 c-10 59 -37
76 -118 75 -36 0 -70 -2 -76 -4z m-21 -467 c-36 -79 -71 -156 -79 -173 -7 -16
-45 -101 -84 -188 -96 -212 -161 -304 -260 -368 -60 -39 -130 -41 -166 -4 -21
20 -25 34 -25 82 0 124 80 323 190 470 136 183 329 318 462 322 l26 1 -64
-142z m3107 95 c-16 -41 -57 -135 -207 -463 -80 -175 -145 -275 -216 -333 -60
-48 -80 -57 -133 -57 -38 0 -52 5 -76 29 -39 40 -39 98 2 226 65 203 200 405
347 519 93 71 206 122 279 125 l23 1 -19 -47z"/>
</g>
</svg>
